<svg viewBox="0 0 34 34" fill="currentColor" xmlns="http://www.w3.org/2000/svg" class="flex-shrink-0 align-middle fill-current w-6 h-6"><path fill-rule="evenodd" clip-rule="evenodd" d="M1 16.5C1 7.94 7.94 1 16.5 1 25.06 1 32 7.94 32 16.5 32 25.06 25.06 32 16.5 32 7.94 32 1 25.06 1 16.5zM16.5 0C7.387 0 0 7.387 0 16.5S7.387 33 16.5 33 33 25.613 33 16.5 25.613 0 16.5 0zm.58 26.36a.87.87 0 01-.58.25l-.01.01a.9.9 0 01-.59-.25l-7.57-7.58a.84.84 0 010-1.19l.11-.1a.85.85 0 011.06.09l6.18 6.14V5.91c0-.65.37-1.18.84-1.18h.14c.467.186.753.66.7 1.16v17.84l6.14-6.14a.84.84 0 011.15 1.19l-7.57 7.58z"></path></svg>