<svg viewBox="0 0 24 24" fill="none" xmlns="http://www.w3.org/2000/svg" class="flex-shrink-0 align-middle fill-current w-6 h-6"><path fill-rule="evenodd" clip-rule="evenodd" d="M11.146 10.854a.5.5 0 010-.708L13.293 8H6.496a3.501 3.501 0 000 7v1a4.501 4.501 0 010-9h6.797l-2.147-2.146a.5.5 0 01.708-.708l3 3a.5.5 0 010 .708l-3 3a.5.5 0 01-.708 0zM17.004 8a3.501 3.501 0 010 7h-6.797l2.147-2.146a.5.5 0 00-.708-.708l-3 3a.5.5 0 000 .708l3 3a.5.5 0 00.708-.708L10.207 16h6.797a4.501 4.501 0 000-9v1z" fill="currentColor"></path></svg>