<svg viewBox="0 0 24 24" xmlns="http://www.w3.org/2000/svg" class="flex-shrink-0 align-middle fill-current w-5 h-5"><path d="M16.5 19c.246 0 .45.183.492.412L17 19.5a.5.5 0 01-.5.5h-14a.5.5 0 010-1h14zm3-5c.245 0 .45.183.492.412L20 14.5c0 .276-.228.5-.5.5h-17a.505.505 0 01-.5-.5c0-.276.228-.5.5-.5h17zm2.006-5c.242 0 .444.183.486.412L22 9.5a.5.5 0 01-.494.5H2.494a.5.5 0 010-1h19.012zM19.5 4c.245 0 .45.183.492.412L20 4.5c0 .276-.228.5-.5.5h-17a.505.505 0 01-.5-.5c0-.276.228-.5.5-.5h17z"></path></svg>