<svg viewBox="0 0 24 24" xmlns="http://www.w3.org/2000/svg" xmlns:xlink="http://www.w3.org/1999/xlink" class="flex-shrink-0 align-middle fill-current w-[1.1rem] h-[1.1rem]"><defs><path d="M2.998 15.295h4.238l6.416 3.208c.333.167.348.157.348-.202V6.29c0-.354-.02-.366-.348-.202L7.236 9.295H2.998a1 1 0 00-.998.998v4.004c0 .556.443.998.998.998zm0 1A1.993 1.993 0 011 14.297v-4.004a2 2 0 011.998-1.998H7l6.205-3.102C14.196 4.697 15 5.19 15 6.289v12.012c0 1.102-.796 1.596-1.795 1.097L7 16.295H2.998zm16.856 2.215a.5.5 0 11-.708-.707 7.5 7.5 0 000-10.606.5.5 0 01.708-.707 8.5 8.5 0 010 12.02zm-1.829-2.828a.5.5 0 11-.707-.707 3.5 3.5 0 000-4.95.5.5 0 11.707-.707 4.5 4.5 0 010 6.364z" id="volume_svg__a"></path></defs><g fill="none" fill-rule="evenodd"><mask id="volume_svg__b" fill="#fff"><use xlink:href="#volume_svg__a"></use></mask><use fill="currentColor" fill-rule="nonzero" xlink:href="#volume_svg__a"></use><g mask="url(#volume_svg__b)" fill="currentColor"><path d="M0 0h24v24H0z"></path></g></g></svg>