<svg viewBox="0 0 24 24" xmlns="http://www.w3.org/2000/svg" xmlns:xlink="http://www.w3.org/1999/xlink" fill="currentColor" class="flex-shrink-0 align-middle fill-current w-5 h-5"><defs><path d="M2 6.009v9.982C2 16.55 2.447 17 2.991 17H21.01A.999.999 0 0022 15.991V6.01C22 5.45 21.553 5 21.009 5H2.99A.999.999 0 002 6.009zm-1 0C1 4.899 1.89 4 2.991 4H21.01C22.109 4 23 4.902 23 6.009v9.982c0 1.11-.89 2.009-1.991 2.009H2.99C1.891 18 1 17.098 1 15.991V6.01zM6 19.5c0-.276.229-.5.5-.5h11c.276 0 .5.232.5.5 0 .276-.229.5-.5.5h-11a.505.505 0 01-.5-.5zM5.59 8.895h1.881c.434 0 .76.108.976.323.217.216.326.516.326.9 0 .216-.028.395-.083.536-.055.142-.12.256-.193.342a.771.771 0 01-.218.187 1.628 1.628 0 01-.157.077v.012c.059.009.122.03.19.064a.574.574 0 01.19.161c.06.074.108.17.147.289.038.118.058.266.058.443 0 .267.017.509.052.726.035.218.09.373.163.466h-.74a.818.818 0 01-.09-.323 4.424 4.424 0 01-.014-.342c0-.207-.011-.386-.033-.536a1.023 1.023 0 00-.122-.374.533.533 0 00-.24-.219.935.935 0 00-.388-.07H6.28v1.864h-.69V8.895zm.69 2.06h1.13c.221 0 .388-.06.502-.18.114-.12.171-.302.171-.542a.95.95 0 00-.055-.352.503.503 0 00-.151-.213.519.519 0 00-.221-.101 1.278 1.278 0 00-.257-.025H6.28v1.413zm5.316 1.008c0 .199-.014.391-.044.577-.03.186-.089.353-.179.5a.966.966 0 01-.392.356c-.17.089-.398.133-.68.133a1.18 1.18 0 01-.536-.11 1.012 1.012 0 01-.364-.305 1.28 1.28 0 01-.21-.46 2.388 2.388 0 01-.065-.577v-.24h.689v.234c0 .258.038.457.113.6.075.14.218.211.427.211a.58.58 0 00.273-.057.423.423 0 00.171-.168.755.755 0 00.086-.275c.015-.11.022-.235.022-.374V8.895h.69v3.068zm.43-3.068h3.188v.685h-1.251v3.841h-.69V9.58h-1.246v-.685zm3.167 0h.717l.987 3.582h.01l1.01-3.582h.7l-1.345 4.526h-.767l-1.312-4.526z" id="live-stream_svg__a"></path></defs><g fill="none" fill-rule="evenodd"><mask id="live-stream_svg__b" fill="#fff"><use xlink:href="#live-stream_svg__a"></use></mask><use fill="currentColor" fill-rule="nonzero" xlink:href="#live-stream_svg__a"></use><g mask="url(#live-stream_svg__b)" fill="currentColor"><path d="M0 0h24v24H0z"></path></g></g></svg>