<svg xmlns:xlink="http://www.w3.org/1999/xlink" xmlns="http://www.w3.org/2000/svg" viewBox="0 0 211 44" fill="#FFF" width="211" height="44" ><path d="M58 10h8.792c3.9 0 6.282 2.086 6.282 6.186 0 3.192-1.256 5.344-3.935 5.913v.067c3.24.44 3.736 2.253 3.8 7.33.035 2.519.167 3.83 1.061 4.301V34h-5.158c-.463-.673-.563-1.58-.596-2.523l-.13-4.605c-.068-1.88-.894-3.021-2.812-3.021H62.76V34H58V10zm5 10v-7h2.024C66.958 13 68 14.12 68 16.363 68 18.98 66.841 20 64.786 20H63zm17.439-7h5.122L91 34h-4.315l-.951-4.441h-5.468L79.316 34H75l5.439-21zM81 26l1.97-9h.058L85 26h-4zm12-13h6.501c5.51 0 6.499 4.03 6.499 10.205C106 30.646 104.515 34 99.252 34H93V13zm4 17V16h1.656c2.989 0 3.344 2.314 3.344 6.83 0 5.41-.543 7.17-3.262 7.17h-1.737zm13 4V13h4v21h-4zm15-21c6.224 0 7 4.362 7 10.5 0 6.141-.776 10.5-7 10.5-6.223 0-7-4.359-7-10.5 0-6.138.777-10.5 7-10.5zm-.002 18c-2.575 0-2.998-2.069-2.998-7.502 0-5.405.423-7.498 2.998-7.498S128 18.093 128 23.498c0 5.433-.427 7.502-3.002 7.502zM147 10v16.947c0 5.01-2.218 7.053-6.917 7.053-4.89 0-6.083-3.197-6.083-6.889v-1.02h4.249v.726c0 2.505.387 3.689 2.058 3.689 1.673 0 2.06-1.184 2.06-3.69V10H147zm7.44 3h5.122L165 34h-4.316l-.95-4.441h-5.469l-.95 4.441H149l5.44-21zm.56 13l1.97-9h.06l1.97 9h-4zm14.504-13l2.95 15.528h.089L175.641 13H180l-4.796 21h-5.408L165 13h4.504zm15.937 0h5.122L196 34h-4.318l-.95-4.441h-5.465L184.315 34H180l5.441-21zM186 26l1.97-9h.06l1.97 9h-4zm16.552-13l4.772 14.38h.056V13H211v21h-4.498l-4.829-14.705h-.053V34H198V13h4.552zm-157.64-1.763c3.742 1.954 6.286 6.656 6.076 11.985-.208 5.268-3.047 9.6-6.864 11.139 2.738-2.336 4.633-6.453 4.82-11.239.192-4.858-1.427-9.24-4.032-11.885zM2.046 22.847c.056 4.866 1.897 9.112 4.634 11.545C2.844 32.737.066 28.245.001 22.91-.06 17.637 2.55 13.089 6.276 11.25c-2.605 2.55-4.29 6.807-4.23 11.598zM42.4 25.74c0-11.483-7.5-20.79-16.747-20.79-9.25 0-16.745 9.307-16.744 20.79 0 3.02.523 5.887 1.456 8.476-1.541-3.264-2.431-7.06-2.431-11.117C7.935 10.95 15.868 1.1 25.654 1.1c9.786 0 17.72 9.85 17.72 22 0 4.056-.888 7.854-2.432 11.116a24.941 24.941 0 001.459-8.476zM5.945 22c0 12.055 7.875 21.829 17.584 21.829.328 0 .655-.013.98-.035-.783.132-1.585.206-2.398.206-9.787 0-17.719-9.85-17.719-22s7.932-22 17.72-22a14.3 14.3 0 012.398.208 14.252 14.252 0 00-.98-.036C13.82.172 5.945 9.943 5.945 22zm39.335 0C45.28 9.943 37.41.172 27.7.172c-.33 0-.657.014-.98.036a14.297 14.297 0 012.4-.208c9.785 0 17.717 9.85 17.717 22s-7.932 22-17.718 22c-.815 0-1.614-.074-2.4-.206.324.022.651.035.98.035 9.712 0 17.582-9.774 17.582-21.83zM25.57 34.427c4.295 0 7.966-1.713 9.455-4.135-1.08 2.923-4.903 5.085-9.454 5.085-4.556 0-8.378-2.163-9.456-5.085 1.488 2.422 5.157 4.135 9.456 4.135z" fill="#FFFFFF" fill-rule="evenodd"></path></svg>